<mxfile host="app.diagrams.net" agent="Mozilla/5.0 (Windows NT 10.0; Win64; x64; rv:131.0) Gecko/20100101 Firefox/131.0" version="24.7.17">
  <diagram name="Seite-1" id="qLXL7wrdkYbhZdPAoMIS">
    <mxGraphModel dx="1035" dy="549" grid="1" gridSize="10" guides="1" tooltips="1" connect="1" arrows="1" fold="1" page="1" pageScale="1" pageWidth="827" pageHeight="1169" math="0" shadow="0">
      <root>
        <mxCell id="0" />
        <mxCell id="1" parent="0" />
        <mxCell id="k5ChqZQMG3mLzgh3NKwq-3" value="" style="endArrow=none;html=1;rounded=0;endFill=0;dashed=1;exitX=0.5;exitY=1;exitDx=0;exitDy=0;dashPattern=8 8;" edge="1" parent="1" source="UAdqeWTijjytV6ec7rgt-5" target="k5ChqZQMG3mLzgh3NKwq-1">
          <mxGeometry width="50" height="50" relative="1" as="geometry">
            <mxPoint x="480" y="220" as="sourcePoint" />
            <mxPoint x="480" y="420" as="targetPoint" />
          </mxGeometry>
        </mxCell>
        <mxCell id="UAdqeWTijjytV6ec7rgt-23" value="" style="endArrow=none;html=1;rounded=0;endFill=0;dashed=1;exitX=0.5;exitY=1;exitDx=0;exitDy=0;dashPattern=8 8;" parent="1" source="UAdqeWTijjytV6ec7rgt-2" edge="1">
          <mxGeometry width="50" height="50" relative="1" as="geometry">
            <mxPoint x="280" y="70" as="sourcePoint" />
            <mxPoint x="280" y="420" as="targetPoint" />
          </mxGeometry>
        </mxCell>
        <mxCell id="UAdqeWTijjytV6ec7rgt-19" value="" style="endArrow=none;html=1;rounded=0;endFill=0;dashed=1;dashPattern=8 8;" parent="1" edge="1">
          <mxGeometry width="50" height="50" relative="1" as="geometry">
            <mxPoint x="80" y="70" as="sourcePoint" />
            <mxPoint x="80" y="420" as="targetPoint" />
          </mxGeometry>
        </mxCell>
        <mxCell id="UAdqeWTijjytV6ec7rgt-4" value="" style="html=1;points=[];perimeter=orthogonalPerimeter;" parent="1" vertex="1">
          <mxGeometry x="277.5" y="110" width="5" height="50" as="geometry" />
        </mxCell>
        <mxCell id="UAdqeWTijjytV6ec7rgt-1" value="objekt1 : A" style="rounded=0;whiteSpace=wrap;html=1;fontStyle=4" parent="1" vertex="1">
          <mxGeometry x="40" y="40" width="80" height="30" as="geometry" />
        </mxCell>
        <mxCell id="UAdqeWTijjytV6ec7rgt-2" value="objekt2 : B" style="rounded=0;whiteSpace=wrap;html=1;fontStyle=4" parent="1" vertex="1">
          <mxGeometry x="240" y="40" width="80" height="30" as="geometry" />
        </mxCell>
        <mxCell id="UAdqeWTijjytV6ec7rgt-5" value="objekt3 : C" style="rounded=0;whiteSpace=wrap;html=1;fontStyle=4" parent="1" vertex="1">
          <mxGeometry x="440" y="190" width="80" height="30" as="geometry" />
        </mxCell>
        <mxCell id="UAdqeWTijjytV6ec7rgt-6" value="&lt;div&gt;synchron kommunizieren&lt;br&gt;&lt;/div&gt;" style="endArrow=block;html=1;rounded=0;endFill=1;labelBackgroundColor=none;verticalAlign=bottom;" parent="1" edge="1">
          <mxGeometry x="-0.0015" width="50" height="50" relative="1" as="geometry">
            <mxPoint x="80" y="110" as="sourcePoint" />
            <mxPoint x="277.5" y="110" as="targetPoint" />
            <mxPoint as="offset" />
          </mxGeometry>
        </mxCell>
        <mxCell id="UAdqeWTijjytV6ec7rgt-7" value="erzeugen" style="endArrow=open;html=1;rounded=0;endFill=0;labelBackgroundColor=none;dashed=1;dashPattern=8 8;exitX=1.357;exitY=0.089;exitDx=0;exitDy=0;exitPerimeter=0;verticalAlign=bottom;entryX=0;entryY=0.5;entryDx=0;entryDy=0;" parent="1" target="UAdqeWTijjytV6ec7rgt-5" edge="1">
          <mxGeometry width="50" height="50" relative="1" as="geometry">
            <mxPoint x="284.28499999999997" y="204.71000000000004" as="sourcePoint" />
            <mxPoint x="360" y="204.96999999999997" as="targetPoint" />
          </mxGeometry>
        </mxCell>
        <mxCell id="UAdqeWTijjytV6ec7rgt-8" value="antworten" style="endArrow=open;html=1;rounded=0;endFill=0;labelBackgroundColor=none;verticalAlign=bottom;dashed=1;dashPattern=8 8;" parent="1" edge="1">
          <mxGeometry width="50" height="50" relative="1" as="geometry">
            <mxPoint x="480" y="300" as="sourcePoint" />
            <mxPoint x="282.5" y="300" as="targetPoint" />
          </mxGeometry>
        </mxCell>
        <mxCell id="UAdqeWTijjytV6ec7rgt-9" value="&lt;div&gt;asynchron kommunizieren&lt;br&gt;&lt;/div&gt;" style="endArrow=open;html=1;rounded=0;endFill=0;labelBackgroundColor=none;verticalAlign=bottom;" parent="1" edge="1">
          <mxGeometry width="50" height="50" relative="1" as="geometry">
            <mxPoint x="80" y="190" as="sourcePoint" />
            <mxPoint x="277.5" y="190" as="targetPoint" />
            <mxPoint as="offset" />
          </mxGeometry>
        </mxCell>
        <mxCell id="UAdqeWTijjytV6ec7rgt-11" value="" style="html=1;points=[];perimeter=orthogonalPerimeter;" parent="1" vertex="1">
          <mxGeometry x="477.5" y="260" width="5" height="40" as="geometry" />
        </mxCell>
        <mxCell id="UAdqeWTijjytV6ec7rgt-12" value="&lt;div&gt;synchron kommunizieren&lt;br&gt;&lt;/div&gt;" style="endArrow=block;html=1;rounded=0;endFill=1;labelBackgroundColor=none;verticalAlign=bottom;" parent="1" edge="1">
          <mxGeometry x="-0.0028" width="50" height="50" relative="1" as="geometry">
            <mxPoint x="280" y="260" as="sourcePoint" />
            <mxPoint x="477.5" y="260" as="targetPoint" />
            <mxPoint as="offset" />
          </mxGeometry>
        </mxCell>
        <mxCell id="UAdqeWTijjytV6ec7rgt-14" value="&lt;div&gt;asynchron kommunizieren&lt;br&gt;&lt;/div&gt;" style="endArrow=open;html=1;rounded=0;endFill=0;labelBackgroundColor=none;verticalAlign=bottom;" parent="1" edge="1">
          <mxGeometry width="50" height="50" relative="1" as="geometry">
            <mxPoint x="80" y="330" as="sourcePoint" />
            <mxPoint x="277.5" y="330" as="targetPoint" />
            <mxPoint as="offset" />
          </mxGeometry>
        </mxCell>
        <mxCell id="UAdqeWTijjytV6ec7rgt-15" value="zerstÃ¶ren" style="endArrow=block;html=1;rounded=0;endFill=1;labelBackgroundColor=none;verticalAlign=bottom;" parent="1" edge="1">
          <mxGeometry width="50" height="50" relative="1" as="geometry">
            <mxPoint x="280" y="340" as="sourcePoint" />
            <mxPoint x="477.5" y="340" as="targetPoint" />
            <mxPoint as="offset" />
          </mxGeometry>
        </mxCell>
        <mxCell id="UAdqeWTijjytV6ec7rgt-17" value="antworten" style="endArrow=open;html=1;rounded=0;endFill=0;labelBackgroundColor=none;verticalAlign=bottom;dashed=1;dashPattern=8 8;" parent="1" edge="1">
          <mxGeometry x="0.0031" width="50" height="50" relative="1" as="geometry">
            <mxPoint x="280" y="160" as="sourcePoint" />
            <mxPoint x="82.5" y="160" as="targetPoint" />
            <mxPoint as="offset" />
          </mxGeometry>
        </mxCell>
        <mxCell id="UAdqeWTijjytV6ec7rgt-24" value="" style="endArrow=none;html=1;rounded=0;endFill=0;dashed=1;exitX=0.5;exitY=1;exitDx=0;exitDy=0;dashPattern=8 8;" parent="1" source="k5ChqZQMG3mLzgh3NKwq-1" edge="1">
          <mxGeometry width="50" height="50" relative="1" as="geometry">
            <mxPoint x="480" y="220" as="sourcePoint" />
            <mxPoint x="480" y="420" as="targetPoint" />
          </mxGeometry>
        </mxCell>
        <mxCell id="UAdqeWTijjytV6ec7rgt-16" value="" style="html=1;points=[];perimeter=orthogonalPerimeter;" parent="1" vertex="1">
          <mxGeometry x="477.5" y="340" width="5" height="30" as="geometry" />
        </mxCell>
        <mxCell id="k5ChqZQMG3mLzgh3NKwq-1" value="" style="shape=umlDestroy;html=1;" vertex="1" parent="1">
          <mxGeometry x="470" y="390" width="20" height="20" as="geometry" />
        </mxCell>
        <mxCell id="UAdqeWTijjytV6ec7rgt-3" value="" style="html=1;points=[];perimeter=orthogonalPerimeter;" parent="1" vertex="1">
          <mxGeometry x="77.5" y="100" width="5" height="270" as="geometry" />
        </mxCell>
        <mxCell id="UAdqeWTijjytV6ec7rgt-10" value="" style="html=1;points=[];perimeter=orthogonalPerimeter;" parent="1" vertex="1">
          <mxGeometry x="277.5" y="190" width="5" height="110" as="geometry" />
        </mxCell>
        <mxCell id="UAdqeWTijjytV6ec7rgt-13" value="" style="html=1;points=[];perimeter=orthogonalPerimeter;" parent="1" vertex="1">
          <mxGeometry x="277.5" y="330" width="5" height="40" as="geometry" />
        </mxCell>
      </root>
    </mxGraphModel>
  </diagram>
</mxfile>
